<?xml version="1.0" standalone="no"?>
<!DOCTYPE svg PUBLIC "-//W3C//DTD SVG 20010904//EN" "http://www.w3.org/TR/2001/REC-SVG-20010904/DTD/svg10.dtd">
<svg version="1.0" xmlns="http://www.w3.org/2000/svg"
	width="1408.000000pt" height="351.000000pt" viewBox="0 0 1408.000000 351.000000"
	preserveAspectRatio="xMidYMid meet">
	<metadata> Created by potrace 1.10, written by Peter Selinger 2001-2011 </metadata>
	<g transform="translate(0.000000,401.000000) scale(0.100000,-0.100000)"
		fill="#265eab" stroke="none">
		<path
			d="M2730 3129 c-47 -3 -107 -13 -135 -22 -27 -8 -68 -21 -90 -28 -22 -7
-47 -19 -56 -26 -8 -7 -19 -13 -22 -13 -4 0 -30 -15 -59 -32 -152 -94 -274
-248 -349 -443 -36 -96 -49 -319 -24 -440 19 -96 27 -117 74 -215 41 -87 122
-192 195 -254 47 -40 178 -126 192 -126 3 0 20 -6 37 -14 178 -77 419 -83 606
-13 131 48 197 87 284 167 109 99 208 262 243 401 27 104 27 345 0 444 -40
149 -153 328 -268 422 -18 15 -35 30 -38 33 -10 12 -110 69 -152 88 -151 66
-258 84 -438 71z m218 -365 c77 -23 146 -66 214 -135 99 -100 143 -217 136
-364 -2 -51 -9 -99 -15 -106 -5 -8 -13 -27 -17 -43 -17 -69 -115 -185 -204
-241 -147 -90 -357 -87 -504 8 -263 170 -305 527 -88 747 61 62 127 105 204
131 67 23 200 24 274 3z" />
		<path
			d="M11123 3114 c-12 -13 -23 -28 -23 -33 0 -10 -29 -75 -112 -251 -22
-47 -53 -112 -68 -145 -15 -33 -44 -96 -65 -140 -20 -44 -55 -118 -77 -165
-21 -47 -45 -98 -53 -115 -109 -233 -135 -288 -135 -290 0 -2 -25 -56 -56
-121 -31 -66 -65 -139 -76 -164 -11 -25 -34 -73 -50 -107 -16 -35 -28 -73 -26
-85 3 -23 6 -23 152 -26 116 -2 153 1 171 12 20 13 50 69 100 183 10 22 29 46
42 52 33 15 607 15 634 0 11 -6 29 -31 40 -57 32 -76 62 -135 82 -165 l18 -27
153 0 c193 0 194 1 146 103 -66 140 -118 253 -150 322 -18 39 -45 97 -60 130
-16 33 -47 98 -68 145 -22 47 -57 121 -77 165 -21 44 -50 107 -65 140 -15 33
-49 104 -74 157 -25 53 -46 99 -46 101 0 3 -31 71 -70 152 -38 81 -70 149 -70
152 0 3 -10 25 -21 48 -27 54 -61 64 -96 29z m94 -779 c20 -44 55 -120 78
-170 23 -49 45 -97 48 -106 11 -34 -13 -39 -184 -39 -197 0 -202 2 -166 76 14
27 43 92 67 144 83 185 81 181 102 178 13 -2 30 -27 55 -83z" />
		<path
			d="M1005 3120 c-11 -4 -51 -18 -90 -30 -234 -73 -420 -243 -513 -470
-13 -30 -27 -64 -32 -75 -15 -35 -33 -167 -33 -250 0 -127 27 -260 70 -345 7
-14 13 -29 13 -33 0 -22 102 -159 163 -220 98 -98 195 -156 347 -208 126 -44
492 -31 590 20 9 5 31 12 50 16 61 13 180 77 186 100 2 11 3 166 2 345 l-3
325 -260 0 -260 0 0 -140 0 -140 82 -3 c52 -2 85 -8 92 -16 12 -15 17 -118 7
-135 -4 -6 -22 -19 -39 -29 -26 -14 -58 -17 -169 -17 -96 0 -141 4 -149 13 -7
6 -22 12 -34 12 -11 0 -45 16 -75 36 -130 84 -207 200 -230 346 -11 67 -10 90
4 162 28 141 95 240 216 321 88 58 152 77 261 77 120 0 187 -22 272 -86 58
-43 73 -38 159 50 92 96 118 127 118 147 0 37 -175 148 -300 190 -119 41 -159
47 -292 46 -73 0 -142 -4 -153 -9z" />
		<path
			d="M7630 3114 c-19 -7 -45 -13 -57 -13 -12 -1 -25 -5 -28 -11 -3 -5 -14
-10 -23 -10 -31 0 -179 -81 -237 -130 -224 -187 -335 -459 -305 -747 21 -198
97 -358 239 -504 86 -87 188 -151 321 -201 84 -31 87 -31 280 -32 202 -1 200
-1 365 50 83 26 176 68 207 94 17 13 18 39 18 342 0 313 -1 328 -19 338 -12 6
-113 10 -260 10 -204 0 -242 -2 -255 -16 -13 -12 -16 -39 -16 -125 0 -146 2
-149 95 -149 106 0 105 1 105 -84 l0 -72 -37 -19 c-56 -28 -242 -33 -320 -10
-123 38 -239 134 -292 241 -13 27 -28 57 -32 66 -16 33 -30 154 -24 208 8 70
38 159 72 213 29 47 121 147 135 147 4 0 27 12 49 26 62 38 134 56 229 56 105
0 173 -19 252 -72 33 -22 71 -40 83 -40 16 0 50 28 110 93 119 125 120 129 64
177 -57 49 -195 122 -284 149 -38 12 -84 26 -101 32 -46 14 -292 9 -334 -7z" />
		<path
			d="M3886 3094 c-13 -12 -16 -40 -16 -142 0 -70 4 -143 10 -162 5 -19 14
-69 20 -110 10 -74 24 -153 54 -320 9 -47 21 -117 27 -157 13 -78 19 -83 89
-83 69 0 77 7 90 73 28 145 41 218 55 312 8 55 23 134 32 175 21 100 30 410
11 421 -7 5 -90 9 -185 9 -143 0 -174 -3 -187 -16z" />
		<path
			d="M4617 3104 c-4 -4 -7 -368 -7 -809 0 -610 3 -804 12 -813 15 -15 640
-17 697 -3 201 51 255 72 359 142 175 118 313 330 342 526 34 234 -5 419 -127
605 -53 80 -186 207 -256 244 -28 14 -58 30 -66 35 -24 13 -68 30 -141 52 -59
18 -101 21 -435 24 -204 2 -374 1 -378 -3z m692 -330 c162 -40 289 -168 342
-344 29 -93 11 -279 -35 -363 -63 -118 -152 -198 -261 -237 -75 -27 -364 -42
-390 -20 -13 11 -15 73 -15 490 0 447 1 479 18 483 47 12 279 6 341 -9z" />
		<path
			d="M6342 3098 c-16 -16 -17 -1579 -2 -1609 10 -17 23 -19 165 -19 142 0
155 2 165 19 15 30 14 1593 -2 1609 -17 17 -309 17 -326 0z" />
		<path
			d="M8750 3101 c-20 -14 -24 -1573 -3 -1608 13 -22 19 -23 162 -23 113 0
151 3 160 14 8 10 10 231 9 817 l-3 804 -155 2 c-85 2 -162 -1 -170 -6z" />
		<path
			d="M9334 3097 c-2 -7 -3 -78 -2 -157 l3 -145 185 -6 c102 -3 186 -6 188
-7 1 -1 2 -288 2 -638 0 -419 4 -642 10 -655 10 -17 23 -19 159 -19 131 0 150
2 164 18 15 17 17 77 17 654 0 571 2 636 16 642 9 3 91 6 183 6 l168 0 11 25
c19 40 16 245 -4 273 l-15 22 -540 0 c-433 0 -541 -3 -545 -13z" />
		<path
			d="M12150 3091 c-13 -26 -14 -1559 0 -1595 l10 -26 459 0 c445 0 461 1
471 19 11 21 14 258 4 285 -5 14 -39 16 -279 16 -154 0 -285 4 -299 10 l-26
10 0 638 c0 483 -3 641 -12 650 -8 8 -59 12 -165 12 -140 0 -153 -2 -163 -19z" />
		<path
			d="M3965 1842 c-22 -15 -53 -48 -69 -72 -25 -37 -30 -54 -30 -109 -1
-73 12 -102 72 -158 44 -42 119 -59 188 -42 69 17 140 89 150 154 22 149 -68
256 -215 255 -45 -1 -64 -6 -96 -28z" />
	</g>
</svg>