<svg width="232" height="61" viewBox="0 0 232 61" fill="none" xmlns="http://www.w3.org/2000/svg">
<path d="M197.4 31.3V59.6H201.1V49.4L209.9 59.6H215.1L204.8 48.6L214 39.8H209L201.1 47.8V31.3H197.4Z" fill="white"/>
<mask id="mask0_1_56" style="mask-type:luminance" maskUnits="userSpaceOnUse" x="0" y="0" width="232" height="61">
<path d="M232 0H0V60.1H232V0Z" fill="white"/>
</mask>
<g mask="url(#mask0_1_56)">
<path d="M132.8 49.6C132.9 52.7 131.3 57.1 127.3 57.1C123.2 57.1 121.5 53 121.5 49.7C121.5 46 123.4 42.3 127.3 42.3C131.2 42.3 132.9 46.1 132.8 49.6ZM117.9 59.6H121.4V56.8H121.5C122.5 58.3 124.7 60 128.2 60C134.2 60 136.7 54.7 136.7 49.3C136.7 44 133.9 39.3 128.2 39.3C124.8 39.3 122.8 40.7 121.7 42.5H121.6V31.3H118V59.6H117.9Z" fill="white"/>
</g>
<path d="M48.9 39.8H45.3V59.5H48.9V39.8Z" fill="white"/>
<path d="M48.9 31.2H45.3V34.8H48.9V31.2Z" fill="white"/>
<mask id="mask1_1_56" style="mask-type:luminance" maskUnits="userSpaceOnUse" x="0" y="0" width="232" height="61">
<path d="M232 0H0V60.1H232V0Z" fill="white"/>
</mask>
<g mask="url(#mask1_1_56)">
<path d="M193.1 40.2C192.1 39.8 190.2 39.4 188.7 39.4C182.7 39.4 178.6 43.7 178.6 49.7C178.6 55.3 182.7 60 188.7 60C190 60 191.8 59.9 193.3 59.2L193 55.9C191.9 56.6 190.3 57 189.1 57C184.4 57 182.5 53.1 182.5 49.6C182.5 45.8 184.8 42.2 188.8 42.2C190 42.2 191.4 42.5 192.7 43.1L193.1 40.2ZM174.1 39.8H170.5V49C170.5 53.8 168.6 57.1 164.5 57.1C161.3 56.9 160.3 54.7 160.3 50.1V39.8H156.7V51.5C156.7 56.8 159 60 164.1 60C166.8 60 169.5 58.6 170.6 56.4H170.7V59.5H174.2V39.8H174.1ZM141.6 59.6H145.2V50.6C145.2 45.6 147.3 42.6 150.6 42.6C151.2 42.6 152 42.7 152.6 42.9V39.7C151.8 39.5 151.3 39.4 150.2 39.4C148.1 39.4 146 40.9 145.1 42.9H145V39.8H141.6V59.6ZM101.2 59C102.9 59.9 104.8 60.1 106.6 60.1C110.1 60.1 113.5 58.2 113.5 53.9C113.5 47.6 104.9 48.8 104.9 44.7C104.9 43.1 106.5 42.3 108.4 42.3C109.3 42.3 111.4 42.8 112.2 43.3L112.5 40.1C111.1 39.7 109.7 39.3 108 39.3C104.1 39.3 101 41.3 101 45.4C101 50.9 109.6 50.6 109.6 54.2C109.6 56.3 107.5 57 105.9 57C104.9 57 102.8 56.5 101.4 55.6L101.2 59ZM79.2 59.6H82.8V50.5C82.8 45.7 84.7 42.4 88.8 42.4C92 42.6 93 44.8 93 49.4V59.6H96.6V47.9C96.6 42.6 94.3 39.4 89.2 39.4C86.5 39.4 83.8 40.8 82.7 43H82.6V39.9H79.2V59.6ZM55.6 59.6H59.2V50.5C59.2 45.7 61.1 42.4 65.2 42.4C68.4 42.6 69.4 44.8 69.4 49.4V59.6H73V47.9C73 42.6 70.7 39.4 65.6 39.4C62.9 39.4 60.2 40.8 59.1 43H59V39.9H55.5V59.6H55.6Z" fill="white"/>
</g>
<mask id="mask2_1_56" style="mask-type:luminance" maskUnits="userSpaceOnUse" x="0" y="0" width="232" height="61">
<path d="M232 0H0V60.1H232V0Z" fill="white"/>
</mask>
<g mask="url(#mask2_1_56)">
<path d="M195.1 8.49999H189.9V1.79999L186.3 2.99999V8.59999H181.9V11.5H186.3V23C186.3 26.9 188.6 28.7 192.4 28.7C193.6 28.7 194.7 28.4 195.5 28.2V25.1C195 25.4 194.1 25.8 193 25.8C191.3 25.8 189.9 24.6 189.9 22.3V11.5H195.1V8.49999Z" fill="white"/>
</g>
<mask id="mask3_1_56" style="mask-type:luminance" maskUnits="userSpaceOnUse" x="0" y="0" width="232" height="61">
<path d="M232 0H0V60.1H232V0Z" fill="white"/>
</mask>
<g mask="url(#mask3_1_56)">
<path d="M231.7 8.49999H226.5V1.79999L222.9 2.99999V8.59999H218.5V11.5H222.9V23C222.9 26.9 225.2 28.7 229 28.7C230.2 28.7 231.3 28.4 232.1 28.2V25.1C231.6 25.4 230.7 25.8 229.6 25.8C227.9 25.8 226.5 24.6 226.5 22.3V11.5H231.7V8.49999Z" fill="white"/>
</g>
<path d="M177.9 0H174.3V3.6H177.9V0Z" fill="white"/>
<path d="M96.2 0H92.6V3.6H96.2V0Z" fill="white"/>
<path d="M206 1.79999H202.4V5.39999H206V1.79999Z" fill="white"/>
<path d="M212.3 1.79999H208.7V5.39999H212.3V1.79999Z" fill="white"/>
<mask id="mask4_1_56" style="mask-type:luminance" maskUnits="userSpaceOnUse" x="0" y="0" width="232" height="61">
<path d="M232 0H0V60.1H232V0Z" fill="white"/>
</mask>
<g mask="url(#mask4_1_56)">
<path d="M211.4 20.7C211.4 23.6 209.5 25.9 205.9 25.9C204.2 25.9 202.2 24.8 202.2 22.7C202.2 19.2 207.1 18.9 209 18.9C209.8 18.9 210.5 19 211.3 19V20.7H211.4ZM200.8 13.1C202.3 11.9 204.5 11.1 206.5 11.1C210.1 11.1 211.4 12.8 211.4 16.2C210 16.1 209 16.1 207.5 16.1C203.7 16.1 198.3 17.6 198.3 22.6C198.3 26.9 201.3 28.8 205.5 28.8C208.8 28.8 210.8 27 211.6 25.8H211.7V28.4H215.1C215 27.8 214.9 26.8 214.9 24.5V16.3C214.9 10.9 212.6 8.1 207 8.1C204.5 8.1 202.3 8.9 200.5 10L200.8 13.1ZM174.3 28.3H177.9V8.6H174.3V28.3ZM157.2 27.7C158.9 28.6 160.8 28.8 162.6 28.8C166.1 28.8 169.5 26.9 169.5 22.6C169.5 16.3 160.9 17.5 160.9 13.4C160.9 11.8 162.5 11 164.4 11C165.3 11 167.4 11.5 168.2 12L168.5 8.8C167.1 8.4 165.7 8 164 8C160.1 8 157 10 157 14.1C157 19.6 165.6 19.3 165.6 22.9C165.6 25 163.5 25.7 161.9 25.7C160.9 25.7 158.8 25.2 157.4 24.3L157.2 27.7ZM143.8 28.3H147.4V19.3C147.4 14.3 149.5 11.3 152.8 11.3C153.4 11.3 154.2 11.4 154.8 11.6V8.4C154 8.2 153.5 8.1 152.4 8.1C150.3 8.1 148.2 9.6 147.3 11.6H147.2V8.5H143.8V28.3ZM124.8 16.6C125.1 14 126.5 11.1 130.1 11.1C133.2 11.1 135 13.6 135 16.6H124.8ZM137.4 23.9C136.5 24.6 133.7 25.9 131.3 25.9C127.9 25.9 124.8 23.2 124.8 19.3H138.9C138.9 13 136.8 8.2 130.2 8.2C124.6 8.2 121 12.3 121 18.2C121 24.6 124.2 28.9 131.2 28.9C134.4 28.9 136 28.1 137.4 27.6V23.9ZM118.7 8.6H115.1L109.6 24.7H109.5L104.2 8.6H100.2L107.3 28.3H111.6L118.7 8.6ZM92.6 28.3H96.2V8.6H92.6V28.3ZM68.5 28.3H72.1V19.2C72.1 14.4 74 11.1 78.1 11.1C81.3 11.3 82.3 13.5 82.3 18.1V28.3H85.9V16.6C85.9 11.3 83.6 8.1 78.5 8.1C75.8 8.1 73.1 9.5 72 11.7H71.9V8.6H68.4V28.3H68.5ZM62.3 8.6H58.7V17.7C58.7 22.5 56.8 25.8 52.7 25.8C49.5 25.6 48.5 23.4 48.5 18.8V8.6H44.9V20.3C44.9 25.6 47.2 28.8 52.3 28.8C55 28.8 57.7 27.4 58.8 25.2H58.9V28.3H62.4V8.6H62.3Z" fill="white"/>
</g>
<path d="M27.7 0.600006H0.599976V27.7H27.7V0.600006Z" fill="#003361"/>
<mask id="mask5_1_56" style="mask-type:luminance" maskUnits="userSpaceOnUse" x="0" y="0" width="232" height="61">
<path d="M232 0H0V60.1H232V0Z" fill="white"/>
</mask>
<g mask="url(#mask5_1_56)">
<path d="M27.7 0.600006H0.599976V27.7H27.7V0.600006Z" stroke="white" stroke-width="1.306"/>
</g>
<path d="M27.7 31.9H0.599976V59H27.7V31.9Z" fill="#F39200"/>
<mask id="mask6_1_56" style="mask-type:luminance" maskUnits="userSpaceOnUse" x="0" y="0" width="232" height="61">
<path d="M232 0H0V60.1H232V0Z" fill="white"/>
</mask>
<g mask="url(#mask6_1_56)">
<path d="M27.7 31.9H0.599976V59H27.7V31.9Z" stroke="white" stroke-width="1.306"/>
</g>
</svg>
